<svg t="1657269134064" class="icon" viewBox="0 0 1024 1024" version="1.1" xmlns="http://www.w3.org/2000/svg" p-id="2063" width="200" height="200"><path d="M100.288 436.096h-64V23.936h919.36v64H100.288z" p-id="2064"></path><path d="M794.496 435.52H168.192v-64h626.304a96.704 96.704 0 0 0 96.576-96.576V155.2h64v119.744a160.768 160.768 0 0 1-160.576 160.576z" p-id="2065"></path><path d="M100.288 968h-64V543.36H952.96v64H100.288z" p-id="2066"></path><path d="M758.848 967.552H167.424v-64h591.424a132.352 132.352 0 0 0 132.224-132.16v-99.072h64v99.072a196.416 196.416 0 0 1-196.224 196.16z" p-id="2067"></path><path d="M337.792 255.232H173.632v-64h164.16z" p-id="2068"></path><path d="M339.904 769.28H175.744v-64h164.16z" p-id="2069"></path></svg>