<svg t="1657269087470" class="icon" viewBox="0 0 1024 1024" version="1.1" xmlns="http://www.w3.org/2000/svg" p-id="1789" width="200" height="200"><path d="M925.376 827.2l-37.696-51.712a69.376 69.376 0 0 0 28.48-55.872V209.344h64v510.208a133.568 133.568 0 0 1-54.784 107.648zM440.576 853.248v-64l301.632-0.384v64zM168.128 853.952v-64h74.24v64z" p-id="1790"></path><path d="M76.032 852.032h-64V621.952a158.4 158.4 0 0 1 80.896-138.048l192.896-108.288V53.952h694.08v64H349.824V413.44L124.224 540.032a94.336 94.336 0 0 0-48.192 82.24z" p-id="1791"></path><path d="M338.24 716.672a126.848 126.848 0 1 1-126.848 126.848 126.976 126.976 0 0 1 126.848-126.848z m0 189.696a62.848 62.848 0 1 0-62.848-62.848 62.912 62.912 0 0 0 62.848 62.848z" p-id="1792"></path><path d="M828.864 716.672a126.848 126.848 0 1 1-126.848 126.848 126.976 126.976 0 0 1 126.848-126.848z m0 189.696a62.848 62.848 0 1 0-62.848-62.848 62.912 62.912 0 0 0 62.848 62.848z" p-id="1793"></path><path d="M794.368 616.32H285.824V307.52h64V552.32h444.544z" p-id="1794"></path></svg>