<svg xmlns="http://www.w3.org/2000/svg" width="16" height="16.031" viewBox="0 0 16 16.031"><defs><style>.a{fill:#fff;}.a,.b,.c{stroke:#285fee;}.a,.b{opacity:0;}.b,.c,.e{fill:none;}.d{stroke:none;}</style></defs><g transform="translate(-47 -1141)"><g class="a" transform="translate(47 1141)"><rect class="d" width="16" height="16"/><rect class="e" x="0.5" y="0.5" width="15" height="15"/></g><g transform="translate(-204 795.969)"><g transform="translate(251.5 346.5)"><rect class="b" width="14.974" height="14.061"/><path class="c" d="M-223.962-686.5a1.478,1.478,0,0,0,.61-1.2h0v-7.473" transform="translate(237.685 697.77)"/><path class="c" d="M-231.244-685.611l4.65-.006" transform="translate(237.562 697.172)"/><path class="c" d="M-235.5-685.605l1.2,0" transform="translate(237.382 697.171)"/><path class="c" d="M-222.818-697.1h-10.343v4.522l-3.269,1.72a1.832,1.832,0,0,0-1.008,1.613v3.37" transform="translate(237.615 697.891)"/><circle class="c" cx="1.389" cy="1.389" r="1.389" transform="translate(3.347 10.497)"/><circle class="c" cx="1.389" cy="1.389" r="1.389" transform="translate(10.944 10.497)"/><path class="c" d="M-232.914-693.638v4.054h6.748" transform="translate(237.361 697.674)"/></g></g></g></svg>