<svg xmlns="http://www.w3.org/2000/svg" width="16" height="16" viewBox="0 0 16 16"><defs><style>.a{fill:#fff;opacity:0;}.a,.b{stroke:#285fee;}.b,.d{fill:none;}.b{stroke-miterlimit:10;}.c{stroke:none;}</style></defs><g transform="translate(-251 -491)"><g class="a" transform="translate(251 491)"><rect class="c" width="16" height="16"/><rect class="d" x="0.5" y="0.5" width="15" height="15"/></g><path class="b" d="M-308.741-679.815v4.966a2.267,2.267,0,0,1-2.267,2.267h-8.4" transform="translate(573.696 1178.006)"/><path class="b" d="M-321.157-672.163v-8.086a1.052,1.052,0,0,1,1.052-1.052h11.87" transform="translate(573.696 1178.006)"/><path class="b" d="M-318.561-681.288v-4.032a.529.529,0,0,1,.529-.529h6.266a.529.529,0,0,1,.529.529h0v7.352a.529.529,0,0,1-.529.529h-6.1" transform="translate(573.696 1178.006)"/></g></svg>