<svg t="1657269033508" class="icon" viewBox="0 0 1024 1024" version="1.1" xmlns="http://www.w3.org/2000/svg" p-id="1515" width="200" height="200"><path d="M448.64 956.288a376.512 376.512 0 0 1-267.264-110.272 376.704 376.704 0 0 1-111.808-267.904 379.584 379.584 0 0 1 377.984-380.288h1.088a32 32 0 0 1 32 32v247.552h-64V263.424a315.584 315.584 0 0 0-283.072 314.688 313.088 313.088 0 0 0 92.928 222.528 313.024 313.024 0 0 0 222.144 91.648h0.96a313.088 313.088 0 0 0 222.592-92.992 312.768 312.768 0 0 0 90.112-191.168H415.296v-64h380.48a32 32 0 0 1 32 32 376.64 376.64 0 0 1-110.272 268.416 376.704 376.704 0 0 1-267.776 111.872z" p-id="1516"></path><path d="M922.432 477.888H576.32a32 32 0 0 1-32-32V99.776a32 32 0 0 1 32-32 378.432 378.432 0 0 1 378.112 377.6 32 32 0 0 1-9.344 22.784 32 32 0 0 1-22.656 9.728z m-314.112-64h280.512a314.496 314.496 0 0 0-280.512-280.512z" p-id="1517"></path></svg>