<svg t="1657269107306" class="icon" viewBox="0 0 1024 1024" version="1.1" xmlns="http://www.w3.org/2000/svg" p-id="1927" width="200" height="200"><path d="M512 2.112a234.752 234.752 0 1 1-234.752 234.752A235.008 235.008 0 0 1 512 2.112z m0 405.504a170.752 170.752 0 1 0-170.752-170.752A170.944 170.944 0 0 0 512 407.616z" p-id="1928"></path><path d="M157.312 989.952h-64v-232.576a234.304 234.304 0 0 1 234.048-233.984h369.28a234.24 234.24 0 0 1 233.984 233.984v103.36a128 128 0 0 1-128 128H220.608v-64h582.016a64 64 0 0 0 64-64v-103.36a170.176 170.176 0 0 0-169.984-169.984h-369.28a170.24 170.24 0 0 0-170.048 169.984z" p-id="1929"></path><path d="M766.528 765.888H552.512v-64h214.016z" p-id="1930"></path></svg>