<svg t="1657269267093" class="icon" viewBox="0 0 1024 1024" version="1.1" xmlns="http://www.w3.org/2000/svg" p-id="2202" width="200" height="200"><path d="M747.968 955.136h-537.6v-64h537.6a113.216 113.216 0 0 0 113.088-113.088V460.224h64v317.824a177.28 177.28 0 0 1-177.088 177.088z" p-id="2203"></path><path d="M130.432 949.952h-64V432.448A99.456 99.456 0 0 1 165.76 333.12h759.68v64H165.76a35.392 35.392 0 0 0-35.328 35.328z" p-id="2204"></path><path d="M699.456 644.288h-390.4v-64h390.4a1.856 1.856 0 0 0 1.856-1.856V107.904a1.856 1.856 0 0 0-1.856-1.856H298.432a1.856 1.856 0 0 0-1.856 1.856v258.048h-64V107.904A65.92 65.92 0 0 1 298.432 42.048h401.024a65.92 65.92 0 0 1 65.856 65.856v470.528a65.92 65.92 0 0 1-65.856 65.856z" p-id="2205"></path></svg>