<svg t="1657269056637" class="icon" viewBox="0 0 1024 1024" version="1.1" xmlns="http://www.w3.org/2000/svg" p-id="1650" width="200" height="200"><path d="M936.576 543.04a425.92 425.92 0 0 1-424.32 393.6 425.664 425.664 0 0 1-424.96-425.6 425.664 425.664 0 0 1 392.96-423.68v55.68a369.792 369.792 0 0 0-337.92 368 370.112 370.112 0 0 0 369.92 369.92 369.344 369.344 0 0 0 368-337.92z" p-id="1651"></path><path d="M936.576 479.04h-56.32a368.832 368.832 0 0 0-336-336v-55.68a425.536 425.536 0 0 1 392.32 391.68z" p-id="1652"></path><path d="M480.256 320.32v57.6a135.04 135.04 0 0 0-101.76 99.2 2.368 2.368 0 0 1-0.64 1.92h-56.32a131.008 131.008 0 0 1 3.2-15.36 193.536 193.536 0 0 1 155.52-143.36z" p-id="1653"></path><path d="M480.256 645.44v56.32a108.8 108.8 0 0 1-14.08-2.56 192.64 192.64 0 0 1-144-156.16h56.32a136.32 136.32 0 0 0 101.12 102.4z" p-id="1654"></path><path d="M702.976 543.04a193.792 193.792 0 0 1-158.72 158.72v-56.96a135.36 135.36 0 0 0 101.76-101.76z" p-id="1655"></path><path d="M702.976 479.04h-56.32c0-0.64-0.64-1.92-0.64-2.56a137.152 137.152 0 0 0-101.76-98.56v-57.6a193.792 193.792 0 0 1 155.52 142.08 152.064 152.064 0 0 1 3.2 16.64z" p-id="1656"></path></svg>