<svg xmlns="http://www.w3.org/2000/svg" width="16" height="16" viewBox="0 0 16 16"><defs><style>.a,.b{fill:#285fee;}.a{stroke:#285fee;opacity:0;}.c{stroke:none;}.d{fill:none;}</style></defs><g transform="translate(-251 -158)"><g class="a" transform="translate(251 158)"><rect class="c" width="16" height="16"/><rect class="d" x="0.5" y="0.5" width="15" height="15"/></g><path class="b" d="M-257.93-704.41a6.655,6.655,0,0,1-6.63,6.15,6.651,6.651,0,0,1-6.64-6.65,6.651,6.651,0,0,1,6.14-6.62v.87a5.778,5.778,0,0,0-5.28,5.75,5.783,5.783,0,0,0,5.78,5.78,5.771,5.771,0,0,0,5.75-5.28Z" transform="translate(523.565 870.895)"/><path class="b" d="M-257.93-705.41h-.88a5.763,5.763,0,0,0-5.25-5.25v-.87A6.649,6.649,0,0,1-257.93-705.41Z" transform="translate(523.565 870.895)"/><path class="b" d="M-265.06-707.89v.9a2.11,2.11,0,0,0-1.59,1.55.037.037,0,0,1-.01.03h-.88a2.047,2.047,0,0,1,.05-.24A3.024,3.024,0,0,1-265.06-707.89Z" transform="translate(523.565 870.895)"/><path class="b" d="M-265.06-702.81v.88a1.7,1.7,0,0,1-.22-.04,3.01,3.01,0,0,1-2.25-2.44h.88a2.13,2.13,0,0,0,1.58,1.6Z" transform="translate(523.565 870.895)"/><path class="b" d="M-261.58-704.41a3.028,3.028,0,0,1-2.48,2.48v-.89a2.115,2.115,0,0,0,1.59-1.59Z" transform="translate(523.565 870.895)"/><path class="b" d="M-261.58-705.41h-.88c0-.01-.01-.03-.01-.04a2.143,2.143,0,0,0-1.59-1.54v-.9a3.028,3.028,0,0,1,2.43,2.22A2.376,2.376,0,0,1-261.58-705.41Z" transform="translate(523.565 870.895)"/></g></svg>