<svg t="1657269365572" class="icon" viewBox="0 0 1024 1024" version="1.1" xmlns="http://www.w3.org/2000/svg" p-id="4931" width="200" height="200"><path d="M80.256 906.432h-64v-766.784a106.688 106.688 0 0 1 106.56-106.56h853.056v64h-853.248a42.56 42.56 0 0 0-42.56 42.56z" p-id="4932"></path><path d="M185.088 981.632l-45.248-45.248 163.968-163.968h525.632a78.592 78.592 0 0 0 78.464-78.528v-503.424h64v503.424a142.656 142.656 0 0 1-142.464 142.528h-499.2z" p-id="4933"></path><path d="M313.152 451.072m-52.8 0a52.8 52.8 0 1 0 105.6 0 52.8 52.8 0 1 0-105.6 0Z" p-id="4934"></path><path d="M503.68 451.072m-52.8 0a52.8 52.8 0 1 0 105.6 0 52.8 52.8 0 1 0-105.6 0Z" p-id="4935"></path><path d="M686.272 451.072m-52.8 0a52.8 52.8 0 1 0 105.6 0 52.8 52.8 0 1 0-105.6 0Z" p-id="4936"></path></svg>