<svg xmlns="http://www.w3.org/2000/svg" width="16" height="16" viewBox="0 0 16 16"><defs><style>.a{fill:#fff;opacity:0;}.a,.b{stroke:#285fee;}.b,.d{fill:none;}.b{stroke-miterlimit:10;}.c{stroke:none;}</style></defs><g transform="translate(-251 -539)"><g class="a" transform="translate(251 539)"><rect class="c" width="16" height="16"/><rect class="d" x="0.5" y="0.5" width="15" height="15"/></g><path class="b" d="M-308.375-657.8c-.906.011-4.424-.027-6.237-1.221a.6.6,0,0,0-.661.005c-1.8,1.2-5.6,1.25-6.547,1.244a.2.2,0,0,0-.216.19v9.515a.179.179,0,0,0,.088.152c.683.427,5.153,3.182,7,3.178,1.783-.005,6.064-2.673,6.732-3.1a.179.179,0,0,0,.088-.152l-.031-5.838" transform="translate(574.036 1199.116)"/><path class="b" d="M-318.99-652.633l2.718,2.593a1.083,1.083,0,0,0,1.3-.111l7.336-6.141" transform="translate(574.036 1199.116)"/></g></svg>