<svg t="1657269290802" class="icon" viewBox="0 0 1024 1024" version="1.1" xmlns="http://www.w3.org/2000/svg" p-id="4525" width="200" height="200"><path d="M517.696 1016.384c-122.368 0-386.816-159.36-465.024-208.256a43.456 43.456 0 0 1-20.672-36.864V162.304a43.264 43.264 0 0 1 12.8-30.912 46.08 46.08 0 0 1 32.768-13.248h9.664c137.28 0 309.504-19.2 391.744-74.24A70.4 70.4 0 0 1 556.608 43.456c85.248 56.128 252.8 74.368 381.184 72.896l0.768 64c-66.88 0.832-294.72-2.816-417.152-83.2a6.4 6.4 0 0 0-6.912 0C402.304 171.968 184.384 181.568 95.872 182.144v577.6c156.288 96.832 344.768 192.704 421.632 192.704 83.904 0 289.28-115.2 404.48-187.328l-1.92-362.048 64-0.32 1.984 373.632a43.52 43.52 0 0 1-20.544 36.928c-75.072 47.552-329.408 202.752-448 203.072z" p-id="4526"></path><path d="M470.016 687.488a100.352 100.352 0 0 1-54.464-15.744l-2.56-1.664-176.128-168.064 44.16-46.336 171.392 163.52a37.696 37.696 0 0 0 41.664-4.544l1.664-1.472 469.504-393.024 41.088 49.088L537.6 661.632a98.944 98.944 0 0 1-67.584 25.856z" p-id="4527"></path></svg>